<svg width="32" height="28" viewBox="0 0 32 28" fill="none" xmlns="http://www.w3.org/2000/svg">
<path fill-rule="evenodd" clip-rule="evenodd" d="M0.00365481 11.8795C0.0519466 11.0797 0.572834 10.386 1.32735 10.1165L29.3273 0.116544C29.9951 -0.121926 30.7391 0.0109503 31.283 0.465793C31.8269 0.920636 32.0894 1.62945 31.9728 2.32883L27.9728 26.3288C27.8612 26.9983 27.4178 27.5654 26.7951 27.8352C26.1723 28.105 25.4553 28.0406 24.8906 27.6641L12.8906 19.6641C12.4242 19.3532 12.1097 18.8608 12.0237 18.3069C11.9414 17.7766 12.0757 17.2366 12.3945 16.8074L11.1094 17.6641C10.5122 18.0622 9.74753 18.1099 9.10559 17.7889L1.10559 13.7889C0.388988 13.4306 -0.0446369 12.6792 0.00365481 11.8795ZM22 8.00003L14 18L26 26L30 2.00003L2.00002 12L10 16L22 8.00003Z" fill="#00C6FB"/>
</svg>
