<svg width="28" height="28" viewBox="0 0 28 28" fill="none" xmlns="http://www.w3.org/2000/svg">
<path fill-rule="evenodd" clip-rule="evenodd" d="M0 4.71429C0 2.11066 2.11066 0 4.71429 0H8.8357C10.1468 0 11.2896 0.892278 11.6075 2.16418L12.6959 6.51761C13.058 7.966 12.2439 9.44898 10.8276 9.92109L8.76868 10.6074C8.17252 10.8061 7.81762 11.4177 7.94086 12.0339C8.75081 16.0836 11.9164 19.2492 15.9661 20.0591C16.5823 20.1824 17.1939 19.8275 17.3926 19.2313L17.9456 17.5723C18.4954 15.9228 20.3787 15.1428 21.9339 15.9203L26.4206 18.1637C27.3886 18.6477 28 19.637 28 20.7192V23.2857C28 25.8893 25.8893 28 23.2857 28H19.5714C8.76243 28 0 19.2376 0 8.42857V4.71429ZM4.71429 2C3.21523 2 2 3.21523 2 4.71429V8.42857C2 18.133 9.867 26 19.5714 26H23.2857C24.7848 26 26 24.7848 26 23.2857V20.7192C26 20.3945 25.8166 20.0977 25.5262 19.9526L21.0395 17.7092C20.5729 17.4759 20.0079 17.7099 19.843 18.2048L19.29 19.8638C18.7723 21.4168 17.1792 22.3414 15.5739 22.0203C10.7324 21.052 6.948 17.2676 5.9797 12.4261C5.65865 10.8208 6.58317 9.22771 8.13622 8.71002L10.1951 8.02373C10.62 7.88209 10.8642 7.4372 10.7556 7.00268L9.66725 2.64925C9.57186 2.26768 9.22902 2 8.8357 2H4.71429ZM16.8571 9.72864L26.2929 0.292893L27.7071 1.70711L18.2714 11.1429H22.3571V13.1429H14.8571V5.64286H16.8571V9.72864Z" fill="#00C6FB"/>
</svg>
